<?xml version="1.0" encoding="utf-8"?>
<!-- Generator: Adobe Illustrator 18.1.1, SVG Export Plug-In . SVG Version: 6.00 Build 0)  -->
<!DOCTYPE svg PUBLIC "-//W3C//DTD SVG 1.1//EN" "http://www.w3.org/Graphics/SVG/1.1/DTD/svg11.dtd">
<svg version="1.1" id="Layer_1" xmlns="http://www.w3.org/2000/svg" xmlns:xlink="http://www.w3.org/1999/xlink" x="0px" y="0px"
	 viewBox="0 0 208.3 408" enable-background="new 0 0 208.3 408" xml:space="preserve">
<g>
	
		<ellipse transform="matrix(0.7755 0.6313 -0.6313 0.7755 77.9981 -63.9193)" fill="#149C82" cx="128.9" cy="77.7" rx="32.6" ry="16.3"/>
	<g>
		<path fill="#149C82" d="M192.2,387.1c-1.9-1.6-4.2-2.8-5.8-4.7c-29.5-36.7-57.4-74.4-81-115.3c-11.6-20-22.3-40.5-27.7-63.2
			c-1.6-6.9-2.6-14.1-2.6-21.1c0.1-11.7,5.4-21,16.2-26.2c6.4-3.1,13.1-5.6,19.8-8c12.3-4.3,25.1-7.3,37.8-14.8
			c-4.5-1.9-7.9-3.6-11.4-4.8c-21.2-7.7-42.7-14.3-65.1-17.1c-14.1-1.7-28.5-2.7-42.3,2.1c-4.5,1.5-10.5,3.7-14.9,5.6
			c0-0.6,1.2-1.1,1.7-1.7c11.4-12.2,25.7-17,42.1-17.7c18.3-0.7,35.6,3.3,52.9,8.7c9.2,2.9,18.6,5.6,28,7.8
			c7.6,1.8,15.2,2.2,22.5-1.6c7.2-3.8,11.2-9.3,10.6-17.8c-0.9-12.5-5.4-23.9-10.3-35.1c-5.1-11.8-10.9-23.2-16.4-34.8
			c-0.8-1.8-1.7-3.6-1.3-6.3c1.7,2.2,3.5,4.3,4.9,6.6c11.7,18.3,21,37.9,28.5,58.3c3.9,10.7,7.9,21.4,9.2,32.9
			c1.2,10.5-0.3,20.5-4.5,30.1c-5.4,12.4-15.7,19.3-27.9,23.7c-7.2,2.6-14.7,4.7-22,7.2c-5.1,1.7-10.3,3.4-15.2,5.7
			c-12.5,5.8-17.5,14.8-14.8,28.4c2.2,11.1,5.2,22.2,9.2,32.9c10.1,27.1,24.3,52.2,39.4,76.8c11.6,19,24,37.4,36,56.2
			C189.4,382.1,190.8,384.6,192.2,387.1z"/>
	</g>
</g>
</svg>
